<mxfile host="app.diagrams.net" modified="2023-12-08T20:30:33.713Z" agent="Mozilla/5.0 (Windows NT 10.0; Win64; x64) AppleWebKit/537.36 (KHTML, like Gecko) Chrome/119.0.0.0 Safari/537.36" etag="DTZ2FuhzPpWJYb1hbHUq" version="22.1.7" type="github">
  <diagram id="C5RBs43oDa-KdzZeNtuy" name="Page-1">
    <mxGraphModel dx="1343" dy="1946" grid="1" gridSize="10" guides="1" tooltips="1" connect="1" arrows="1" fold="1" page="1" pageScale="1" pageWidth="827" pageHeight="1169" math="0" shadow="0">
      <root>
        <mxCell id="WIyWlLk6GJQsqaUBKTNV-0" />
        <mxCell id="WIyWlLk6GJQsqaUBKTNV-1" parent="WIyWlLk6GJQsqaUBKTNV-0" />
        <mxCell id="zWS8ZyFXuyoFbVUlnYfX-1" value="" style="whiteSpace=wrap;html=1;aspect=fixed;" vertex="1" parent="WIyWlLk6GJQsqaUBKTNV-1">
          <mxGeometry x="31.5" y="-30" width="1058.5" height="1058.5" as="geometry" />
        </mxCell>
        <mxCell id="zWS8ZyFXuyoFbVUlnYfX-2" value="App" style="text;strokeColor=none;align=center;fillColor=none;html=1;verticalAlign=middle;whiteSpace=wrap;rounded=0;" vertex="1" parent="WIyWlLk6GJQsqaUBKTNV-1">
          <mxGeometry x="390" y="-10" width="60" height="30" as="geometry" />
        </mxCell>
        <mxCell id="zWS8ZyFXuyoFbVUlnYfX-3" value="" style="rounded=0;whiteSpace=wrap;html=1;" vertex="1" parent="WIyWlLk6GJQsqaUBKTNV-1">
          <mxGeometry x="60" y="30" width="980" height="640" as="geometry" />
        </mxCell>
        <mxCell id="zWS8ZyFXuyoFbVUlnYfX-4" value="Coffee Control" style="text;strokeColor=none;align=center;fillColor=none;html=1;verticalAlign=middle;whiteSpace=wrap;rounded=0;" vertex="1" parent="WIyWlLk6GJQsqaUBKTNV-1">
          <mxGeometry x="390" y="60" width="60" height="30" as="geometry" />
        </mxCell>
        <mxCell id="zWS8ZyFXuyoFbVUlnYfX-5" value="" style="rounded=0;whiteSpace=wrap;html=1;" vertex="1" parent="WIyWlLk6GJQsqaUBKTNV-1">
          <mxGeometry x="80" y="123.5" width="220" height="466.5" as="geometry" />
        </mxCell>
        <mxCell id="zWS8ZyFXuyoFbVUlnYfX-8" value="" style="rounded=0;whiteSpace=wrap;html=1;" vertex="1" parent="WIyWlLk6GJQsqaUBKTNV-1">
          <mxGeometry x="323.5" y="123.5" width="220" height="466.5" as="geometry" />
        </mxCell>
        <mxCell id="zWS8ZyFXuyoFbVUlnYfX-9" value="" style="rounded=0;whiteSpace=wrap;html=1;" vertex="1" parent="WIyWlLk6GJQsqaUBKTNV-1">
          <mxGeometry x="570" y="123.5" width="220" height="466.5" as="geometry" />
        </mxCell>
        <mxCell id="zWS8ZyFXuyoFbVUlnYfX-10" value="Coffee List" style="text;strokeColor=none;align=center;fillColor=none;html=1;verticalAlign=middle;whiteSpace=wrap;rounded=0;" vertex="1" parent="WIyWlLk6GJQsqaUBKTNV-1">
          <mxGeometry x="160" y="140" width="60" height="30" as="geometry" />
        </mxCell>
        <mxCell id="zWS8ZyFXuyoFbVUlnYfX-11" value="Coffee" style="rounded=0;whiteSpace=wrap;html=1;" vertex="1" parent="WIyWlLk6GJQsqaUBKTNV-1">
          <mxGeometry x="130" y="200" width="120" height="60" as="geometry" />
        </mxCell>
        <mxCell id="zWS8ZyFXuyoFbVUlnYfX-12" value="Coffee" style="rounded=0;whiteSpace=wrap;html=1;" vertex="1" parent="WIyWlLk6GJQsqaUBKTNV-1">
          <mxGeometry x="130" y="290" width="120" height="60" as="geometry" />
        </mxCell>
        <mxCell id="zWS8ZyFXuyoFbVUlnYfX-16" value="" style="edgeStyle=orthogonalEdgeStyle;rounded=0;orthogonalLoop=1;jettySize=auto;html=1;" edge="1" parent="WIyWlLk6GJQsqaUBKTNV-1" source="zWS8ZyFXuyoFbVUlnYfX-14" target="zWS8ZyFXuyoFbVUlnYfX-15">
          <mxGeometry relative="1" as="geometry" />
        </mxCell>
        <mxCell id="zWS8ZyFXuyoFbVUlnYfX-14" value="Coffee" style="rounded=0;whiteSpace=wrap;html=1;" vertex="1" parent="WIyWlLk6GJQsqaUBKTNV-1">
          <mxGeometry x="130" y="380" width="120" height="60" as="geometry" />
        </mxCell>
        <mxCell id="zWS8ZyFXuyoFbVUlnYfX-15" value="Add Coffee" style="rounded=0;whiteSpace=wrap;html=1;" vertex="1" parent="WIyWlLk6GJQsqaUBKTNV-1">
          <mxGeometry x="130" y="520" width="120" height="60" as="geometry" />
        </mxCell>
        <mxCell id="zWS8ZyFXuyoFbVUlnYfX-17" value="Coffee Form" style="text;strokeColor=none;align=center;fillColor=none;html=1;verticalAlign=middle;whiteSpace=wrap;rounded=0;" vertex="1" parent="WIyWlLk6GJQsqaUBKTNV-1">
          <mxGeometry x="400" y="140" width="60" height="30" as="geometry" />
        </mxCell>
        <mxCell id="zWS8ZyFXuyoFbVUlnYfX-18" value="Coffee Form Submit" style="rounded=0;whiteSpace=wrap;html=1;" vertex="1" parent="WIyWlLk6GJQsqaUBKTNV-1">
          <mxGeometry x="375" y="520" width="120" height="60" as="geometry" />
        </mxCell>
        <mxCell id="zWS8ZyFXuyoFbVUlnYfX-19" value="Coffee Detail" style="text;strokeColor=none;align=center;fillColor=none;html=1;verticalAlign=middle;whiteSpace=wrap;rounded=0;" vertex="1" parent="WIyWlLk6GJQsqaUBKTNV-1">
          <mxGeometry x="660" y="140" width="60" height="30" as="geometry" />
        </mxCell>
        <mxCell id="zWS8ZyFXuyoFbVUlnYfX-20" value="Coffee Update" style="rounded=0;whiteSpace=wrap;html=1;" vertex="1" parent="WIyWlLk6GJQsqaUBKTNV-1">
          <mxGeometry x="620" y="520" width="120" height="60" as="geometry" />
        </mxCell>
        <mxCell id="zWS8ZyFXuyoFbVUlnYfX-23" value="" style="rounded=0;whiteSpace=wrap;html=1;" vertex="1" parent="WIyWlLk6GJQsqaUBKTNV-1">
          <mxGeometry x="800" y="123.5" width="220" height="466.5" as="geometry" />
        </mxCell>
        <mxCell id="zWS8ZyFXuyoFbVUlnYfX-24" value="Coffee Edit" style="text;strokeColor=none;align=center;fillColor=none;html=1;verticalAlign=middle;whiteSpace=wrap;rounded=0;" vertex="1" parent="WIyWlLk6GJQsqaUBKTNV-1">
          <mxGeometry x="890" y="140" width="60" height="30" as="geometry" />
        </mxCell>
        <mxCell id="zWS8ZyFXuyoFbVUlnYfX-25" value="Submit" style="rounded=0;whiteSpace=wrap;html=1;" vertex="1" parent="WIyWlLk6GJQsqaUBKTNV-1">
          <mxGeometry x="860" y="520" width="120" height="60" as="geometry" />
        </mxCell>
      </root>
    </mxGraphModel>
  </diagram>
</mxfile>
